# Blender 4.0.2
# www.blender.org
mtllib launcher_turret_launcher.mtl
o cube
v -0.375000 1.187500 2.250000
v -0.375000 1.187500 0.375000
v -0.375000 0.187500 2.250000
v -0.375000 0.187500 0.375000
v -0.625000 1.187500 0.375000
v -0.625000 1.187500 2.250000
v -0.625000 0.187500 0.375000
v -0.625000 0.187500 2.250000
vn -0.0000 -0.0000 -1.0000
vn 1.0000 -0.0000 -0.0000
vn -0.0000 -0.0000 1.0000
vn -1.0000 -0.0000 -0.0000
vn -0.0000 1.0000 -0.0000
vn -0.0000 -1.0000 -0.0000
vt 0.296875 0.769531
vt 0.312500 0.769531
vt 0.312500 0.832031
vt 0.296875 0.832031
vt 0.179688 0.769531
vt 0.179688 0.832031
vt 0.429688 0.769531
vt 0.445312 0.769531
vt 0.445312 0.832031
vt 0.429688 0.832031
vt 0.312500 0.949219
vt 0.296875 0.949219
vt 0.328125 0.832031
vt 0.328125 0.949219
s 0
usemtl m_5f6dbcb9-f7c8-62ab-c67c-59cb8533a9a6
f 4/1/1 7/2/1 5/3/1 2/4/1
f 3/5/2 4/1/2 2/4/2 1/6/2
f 8/7/3 3/8/3 1/9/3 6/10/3
f 7/2/4 8/7/4 6/10/4 5/3/4
f 6/11/5 1/12/5 2/4/5 5/3/5
f 7/13/6 4/3/6 3/11/6 8/14/6
o cube.001
v 0.625000 1.187500 2.250000
v 0.625000 1.187500 0.375000
v 0.625000 0.187500 2.250000
v 0.625000 0.187500 0.375000
v 0.375000 1.187500 0.375000
v 0.375000 1.187500 2.250000
v 0.375000 0.187500 0.375000
v 0.375000 0.187500 2.250000
vn -0.0000 -0.0000 -1.0000
vn 1.0000 -0.0000 -0.0000
vn -0.0000 -0.0000 1.0000
vn -1.0000 -0.0000 -0.0000
vn -0.0000 1.0000 -0.0000
vn -0.0000 -1.0000 -0.0000
vt 0.117188 0.652344
vt 0.132812 0.652344
vt 0.132812 0.714844
vt 0.117188 0.714844
vt 0.000000 0.652344
vt 0.000000 0.714844
vt 0.250000 0.652344
vt 0.265625 0.652344
vt 0.265625 0.714844
vt 0.250000 0.714844
vt 0.132812 0.832031
vt 0.117188 0.832031
vt 0.148438 0.714844
vt 0.148438 0.832031
s 0
usemtl m_5f6dbcb9-f7c8-62ab-c67c-59cb8533a9a6
f 12/15/7 15/16/7 13/17/7 10/18/7
f 11/19/8 12/15/8 10/18/8 9/20/8
f 16/21/9 11/22/9 9/23/9 14/24/9
f 15/16/10 16/21/10 14/24/10 13/17/10
f 14/25/11 9/26/11 10/18/11 13/17/11
f 15/27/12 12/17/12 11/25/12 16/28/12
o cube.002
v 0.375000 1.250000 2.625000
v 0.375000 1.250000 1.000000
v 0.375000 0.187500 2.625000
v 0.375000 0.187500 1.000000
v -0.375000 1.250000 1.000000
v -0.375000 1.250000 2.625000
v -0.375000 0.187500 1.000000
v -0.375000 0.187500 2.625000
vn -0.0000 -0.0000 -1.0000
vn 1.0000 -0.0000 -0.0000
vn -0.0000 -0.0000 1.0000
vn -1.0000 -0.0000 -0.0000
vn -0.0000 1.0000 -0.0000
vn -0.0000 -1.0000 -0.0000
vt 0.101562 0.832031
vt 0.148438 0.832031
vt 0.148438 0.898438
vt 0.101562 0.898438
vt 0.000000 0.832031
vt 0.000000 0.898438
vt 0.250000 0.832031
vt 0.296875 0.832031
vt 0.296875 0.898438
vt 0.250000 0.898438
vt 0.148438 1.000000
vt 0.101562 1.000000
vt 0.195312 0.898438
vt 0.195312 1.000000
s 0
usemtl m_5f6dbcb9-f7c8-62ab-c67c-59cb8533a9a6
f 20/29/13 23/30/13 21/31/13 18/32/13
f 19/33/14 20/29/14 18/32/14 17/34/14
f 24/35/15 19/36/15 17/37/15 22/38/15
f 23/30/16 24/35/16 22/38/16 21/31/16
f 22/39/17 17/40/17 18/32/17 21/31/17
f 23/41/18 20/31/18 19/39/18 24/42/18
o cube.003
v 0.187500 0.375000 1.000000
v 0.187500 0.375000 -0.000000
v 0.187500 0.218750 1.000000
v 0.187500 0.218750 -0.000000
v -0.187500 0.375000 -0.000000
v -0.187500 0.375000 1.000000
v -0.187500 0.218750 -0.000000
v -0.187500 0.218750 1.000000
vn -0.0000 -0.0000 -1.0000
vn 1.0000 -0.0000 -0.0000
vn -0.0000 -0.0000 1.0000
vn -1.0000 -0.0000 -0.0000
vn -0.0000 1.0000 -0.0000
vn -0.0000 -1.0000 -0.0000
vt 0.335938 0.572266
vt 0.359375 0.572266
vt 0.359375 0.582031
vt 0.335938 0.582031
vt 0.273438 0.572266
vt 0.273438 0.582031
vt 0.421875 0.572266
vt 0.445312 0.572266
vt 0.445312 0.582031
vt 0.421875 0.582031
vt 0.359375 0.644531
vt 0.335938 0.644531
vt 0.382812 0.582031
vt 0.382812 0.644531
s 0
usemtl m_5f6dbcb9-f7c8-62ab-c67c-59cb8533a9a6
f 28/43/19 31/44/19 29/45/19 26/46/19
f 27/47/20 28/43/20 26/46/20 25/48/20
f 32/49/21 27/50/21 25/51/21 30/52/21
f 31/44/22 32/49/22 30/52/22 29/45/22
f 30/53/23 25/54/23 26/46/23 29/45/23
f 31/55/24 28/45/24 27/53/24 32/56/24
o cube.004
v -0.625000 1.000000 2.125000
v -0.625000 1.000000 0.875000
v -0.625000 0.312500 2.125000
v -0.625000 0.312500 0.875000
v -0.937500 1.000000 0.875000
v -0.937500 1.000000 2.125000
v -0.937500 0.312500 0.875000
v -0.937500 0.312500 2.125000
vn -0.0000 -0.0000 -1.0000
vn 1.0000 -0.0000 -0.0000
vn -0.0000 -0.0000 1.0000
vn -1.0000 -0.0000 -0.0000
vn -0.0000 1.0000 -0.0000
vn -0.0000 -1.0000 -0.0000
vt 0.078125 0.531250
vt 0.097656 0.531250
vt 0.097656 0.574219
vt 0.078125 0.574219
vt 0.000000 0.531250
vt 0.000000 0.574219
vt 0.175781 0.531250
vt 0.195312 0.531250
vt 0.195312 0.574219
vt 0.175781 0.574219
vt 0.097656 0.652344
vt 0.078125 0.652344
vt 0.117188 0.574219
vt 0.117188 0.652344
s 0
usemtl m_5f6dbcb9-f7c8-62ab-c67c-59cb8533a9a6
f 36/57/25 39/58/25 37/59/25 34/60/25
f 35/61/26 36/57/26 34/60/26 33/62/26
f 40/63/27 35/64/27 33/65/27 38/66/27
f 39/58/28 40/63/28 38/66/28 37/59/28
f 38/67/29 33/68/29 34/60/29 37/59/29
f 39/69/30 36/59/30 35/67/30 40/70/30
o cube.005
v 0.937500 1.000000 2.125000
v 0.937500 1.000000 0.875000
v 0.937500 0.312500 2.125000
v 0.937500 0.312500 0.875000
v 0.625000 1.000000 0.875000
v 0.625000 1.000000 2.125000
v 0.625000 0.312500 0.875000
v 0.625000 0.312500 2.125000
vn -0.0000 -0.0000 -1.0000
vn 1.0000 -0.0000 -0.0000
vn -0.0000 -0.0000 1.0000
vn -1.0000 -0.0000 -0.0000
vn -0.0000 1.0000 -0.0000
vn -0.0000 -1.0000 -0.0000
vt 0.406250 0.878906
vt 0.425781 0.878906
vt 0.425781 0.921875
vt 0.406250 0.921875
vt 0.328125 0.878906
vt 0.328125 0.921875
vt 0.503906 0.878906
vt 0.523438 0.878906
vt 0.523438 0.921875
vt 0.503906 0.921875
vt 0.425781 1.000000
vt 0.406250 1.000000
vt 0.445312 0.921875
vt 0.445312 1.000000
s 0
usemtl m_5f6dbcb9-f7c8-62ab-c67c-59cb8533a9a6
f 44/71/31 47/72/31 45/73/31 42/74/31
f 43/75/32 44/71/32 42/74/32 41/76/32
f 48/77/33 43/78/33 41/79/33 46/80/33
f 47/72/34 48/77/34 46/80/34 45/73/34
f 46/81/35 41/82/35 42/74/35 45/73/35
f 47/83/36 44/73/36 43/81/36 48/84/36
o cube.006
v 0.375000 0.125000 0.375000
v 0.375000 0.125000 -0.375000
v 0.375000 0.062500 0.375000
v 0.375000 0.062500 -0.375000
v -0.375000 0.125000 -0.375000
v -0.375000 0.125000 0.375000
v -0.375000 0.062500 -0.375000
v -0.375000 0.062500 0.375000
vn -0.0000 -0.0000 -1.0000
vn 1.0000 -0.0000 -0.0000
vn -0.0000 -0.0000 1.0000
vn -1.0000 -0.0000 -0.0000
vn -0.0000 1.0000 -0.0000
vn -0.0000 -1.0000 -0.0000
vt 0.242188 0.949219
vt 0.289062 0.949219
vt 0.289062 0.953125
vt 0.242188 0.953125
vt 0.195312 0.949219
vt 0.195312 0.953125
vt 0.335938 0.949219
vt 0.382812 0.949219
vt 0.382812 0.953125
vt 0.335938 0.953125
vt 0.289062 1.000000
vt 0.242188 1.000000
vt 0.335938 1.000000
s 0
usemtl m_5f6dbcb9-f7c8-62ab-c67c-59cb8533a9a6
f 52/85/37 55/86/37 53/87/37 50/88/37
f 51/89/38 52/85/38 50/88/38 49/90/38
f 56/91/39 51/92/39 49/93/39 54/94/39
f 55/86/40 56/91/40 54/94/40 53/87/40
f 54/95/41 49/96/41 50/88/41 53/87/41
f 55/94/42 52/87/42 51/95/42 56/97/42
o cube.007
v -0.187500 0.250000 0.750000
v -0.187500 0.250000 -0.312500
v -0.187500 0.125000 0.750000
v -0.187500 0.125000 -0.312500
v -0.312500 0.250000 -0.312500
v -0.312500 0.250000 0.750000
v -0.312500 0.125000 -0.312500
v -0.312500 0.125000 0.750000
vn -0.0000 -0.0000 -1.0000
vn 1.0000 -0.0000 -0.0000
vn -0.0000 -0.0000 1.0000
vn -1.0000 -0.0000 -0.0000
vn -0.0000 1.0000 -0.0000
vn -0.0000 -1.0000 -0.0000
vt 0.445312 0.562500
vt 0.453125 0.562500
vt 0.453125 0.570312
vt 0.445312 0.570312
vt 0.378906 0.562500
vt 0.378906 0.570312
vt 0.519531 0.562500
vt 0.527344 0.562500
vt 0.527344 0.570312
vt 0.519531 0.570312
vt 0.453125 0.636719
vt 0.445312 0.636719
vt 0.460938 0.570312
vt 0.460938 0.636719
s 0
usemtl m_5f6dbcb9-f7c8-62ab-c67c-59cb8533a9a6
f 60/98/43 63/99/43 61/100/43 58/101/43
f 59/102/44 60/98/44 58/101/44 57/103/44
f 64/104/45 59/105/45 57/106/45 62/107/45
f 63/99/46 64/104/46 62/107/46 61/100/46
f 62/108/47 57/109/47 58/101/47 61/100/47
f 63/110/48 60/100/48 59/108/48 64/111/48
o cube.008
v 0.437500 0.187500 2.125000
v 0.437500 0.187500 0.750000
v 0.437500 0.062500 2.125000
v 0.437500 0.062500 0.750000
v -0.437500 0.187500 0.750000
v -0.437500 0.187500 2.125000
v -0.437500 0.062500 0.750000
v -0.437500 0.062500 2.125000
vn -0.0000 -0.0000 -1.0000
vn 1.0000 -0.0000 -0.0000
vn -0.0000 -0.0000 1.0000
vn -1.0000 -0.0000 -0.0000
vn -0.0000 1.0000 -0.0000
vn -0.0000 -1.0000 -0.0000
vt 0.265625 0.644531
vt 0.320312 0.644531
vt 0.320312 0.652344
vt 0.265625 0.652344
vt 0.179688 0.644531
vt 0.179688 0.652344
vt 0.406250 0.644531
vt 0.460938 0.644531
vt 0.460938 0.652344
vt 0.406250 0.652344
vt 0.320312 0.738281
vt 0.265625 0.738281
vt 0.375000 0.652344
vt 0.375000 0.738281
s 0
usemtl m_5f6dbcb9-f7c8-62ab-c67c-59cb8533a9a6
f 68/112/49 71/113/49 69/114/49 66/115/49
f 67/116/50 68/112/50 66/115/50 65/117/50
f 72/118/51 67/119/51 65/120/51 70/121/51
f 71/113/52 72/118/52 70/121/52 69/114/52
f 70/122/53 65/123/53 66/115/53 69/114/53
f 71/124/54 68/114/54 67/122/54 72/125/54
o cube.009
v 0.312500 0.250000 0.750000
v 0.312500 0.250000 -0.312500
v 0.312500 0.125000 0.750000
v 0.312500 0.125000 -0.312500
v 0.187500 0.250000 -0.312500
v 0.187500 0.250000 0.750000
v 0.187500 0.125000 -0.312500
v 0.187500 0.125000 0.750000
vn -0.0000 -0.0000 -1.0000
vn 1.0000 -0.0000 -0.0000
vn -0.0000 -0.0000 1.0000
vn -1.0000 -0.0000 -0.0000
vn -0.0000 1.0000 -0.0000
vn -0.0000 -1.0000 -0.0000
vt 0.441406 0.695312
vt 0.449219 0.695312
vt 0.449219 0.703125
vt 0.441406 0.703125
vt 0.375000 0.695312
vt 0.375000 0.703125
vt 0.515625 0.695312
vt 0.523438 0.695312
vt 0.523438 0.703125
vt 0.515625 0.703125
vt 0.449219 0.769531
vt 0.441406 0.769531
vt 0.457031 0.703125
vt 0.457031 0.769531
s 0
usemtl m_5f6dbcb9-f7c8-62ab-c67c-59cb8533a9a6
f 76/126/55 79/127/55 77/128/55 74/129/55
f 75/130/56 76/126/56 74/129/56 73/131/56
f 80/132/57 75/133/57 73/134/57 78/135/57
f 79/127/58 80/132/58 78/135/58 77/128/58
f 78/136/59 73/137/59 74/129/59 77/128/59
f 79/138/60 76/128/60 75/136/60 80/139/60
o cube.010
v 0.437500 0.062500 0.437500
v 0.437500 0.062500 -0.437500
v 0.437500 0.000000 0.437500
v 0.437500 -0.000000 -0.437500
v -0.437500 0.062500 -0.437500
v -0.437500 0.062500 0.437500
v -0.437500 -0.000000 -0.437500
v -0.437500 0.000000 0.437500
vn -0.0000 -0.0000 -1.0000
vn 1.0000 -0.0000 -0.0000
vn -0.0000 -0.0000 1.0000
vn -1.0000 -0.0000 -0.0000
vn -0.0000 1.0000 -0.0000
vn -0.0000 -1.0000 -0.0000
vt 0.171875 0.585938
vt 0.226562 0.585938
vt 0.226562 0.589844
vt 0.171875 0.589844
vt 0.117188 0.585938
vt 0.117188 0.589844
vt 0.281250 0.585938
vt 0.335938 0.585938
vt 0.335938 0.589844
vt 0.281250 0.589844
vt 0.226562 0.644531
vt 0.171875 0.644531
vt 0.281250 0.644531
s 0
usemtl m_5f6dbcb9-f7c8-62ab-c67c-59cb8533a9a6
f 84/140/61 87/141/61 85/142/61 82/143/61
f 83/144/62 84/140/62 82/143/62 81/145/62
f 88/146/63 83/147/63 81/148/63 86/149/63
f 87/141/64 88/146/64 86/149/64 85/142/64
f 86/150/65 81/151/65 82/143/65 85/142/65
f 87/149/66 84/142/66 83/150/66 88/152/66
