# Blender 4.1.1
# www.blender.org
mtllib launcher_turret_launcher.mtl
o cube
v -0.375000 1.187500 3.187500
v -0.375000 1.187500 0.375000
v -0.375000 0.187500 3.187500
v -0.375000 0.187500 0.375000
v -0.625000 1.187500 0.375000
v -0.625000 1.187500 3.187500
v -0.625000 0.187500 0.375000
v -0.625000 0.187500 3.187500
vn -0.0000 -0.0000 -1.0000
vn 1.0000 -0.0000 -0.0000
vn -0.0000 -0.0000 1.0000
vn -1.0000 -0.0000 -0.0000
vn -0.0000 1.0000 -0.0000
vn -0.0000 -1.0000 -0.0000
vt 0.070312 0.179688
vt 0.101562 0.179688
vt 0.101562 0.304688
vt 0.070312 0.304688
vt 0.000000 0.875000
vt 0.351562 0.875000
vt 0.351562 1.000000
vt 0.000000 1.000000
vt 0.132812 0.179688
vt 0.132812 0.304688
vt 0.000000 0.750000
vt 0.351562 0.750000
vt 0.437500 0.390625
vt 0.406250 0.390625
vt 0.406250 0.039062
vt 0.437500 0.039062
vt 0.468750 0.039062
vt 0.468750 0.390625
s 0
usemtl m_0cf0e49a-57f7-b0e6-3d7a-a200e499bbb1
f 4/1/1 7/2/1 5/3/1 2/4/1
f 3/5/2 4/6/2 2/7/2 1/8/2
f 8/2/3 3/9/3 1/10/3 6/3/3
f 7/11/4 8/12/4 6/6/4 5/5/4
f 6/13/5 1/14/5 2/15/5 5/16/5
f 7/17/6 4/16/6 3/13/6 8/18/6
o cube.001
v 0.625000 1.187500 3.187500
v 0.625000 1.187500 0.375000
v 0.625000 0.187500 3.187500
v 0.625000 0.187500 0.375000
v 0.375000 1.187500 0.375000
v 0.375000 1.187500 3.187500
v 0.375000 0.187500 0.375000
v 0.375000 0.187500 3.187500
vn -0.0000 -0.0000 -1.0000
vn 1.0000 -0.0000 -0.0000
vn -0.0000 -0.0000 1.0000
vn -1.0000 -0.0000 -0.0000
vn -0.0000 1.0000 -0.0000
vn -0.0000 -1.0000 -0.0000
vt 0.132812 0.179688
vt 0.164062 0.179688
vt 0.164062 0.304688
vt 0.132812 0.304688
vt 0.000000 0.625000
vt 0.351562 0.625000
vt 0.351562 0.750000
vt 0.000000 0.750000
vt 0.578125 0.179688
vt 0.609375 0.179688
vt 0.609375 0.304688
vt 0.578125 0.304688
vt 0.351562 0.875000
vt 0.703125 0.875000
vt 0.703125 1.000000
vt 0.351562 1.000000
vt 0.500000 0.390625
vt 0.468750 0.390625
vt 0.468750 0.039062
vt 0.500000 0.039062
vt 0.531250 0.039062
vt 0.531250 0.390625
s 0
usemtl m_0cf0e49a-57f7-b0e6-3d7a-a200e499bbb1
f 12/19/7 15/20/7 13/21/7 10/22/7
f 11/23/8 12/24/8 10/25/8 9/26/8
f 16/27/9 11/28/9 9/29/9 14/30/9
f 15/31/10 16/32/10 14/33/10 13/34/10
f 14/35/11 9/36/11 10/37/11 13/38/11
f 15/39/12 12/38/12 11/35/12 16/40/12
o cube.002
v 0.375000 1.250000 3.562500
v 0.375000 1.250000 1.000000
v 0.375000 0.187500 3.562500
v 0.375000 0.187500 1.000000
v -0.375000 1.250000 1.000000
v -0.375000 1.250000 3.562500
v -0.375000 0.187500 1.000000
v -0.375000 0.187500 3.562500
vn -0.0000 -0.0000 -1.0000
vn 1.0000 -0.0000 -0.0000
vn -0.0000 -0.0000 1.0000
vn -1.0000 -0.0000 -0.0000
vn -0.0000 1.0000 -0.0000
vn -0.0000 -1.0000 -0.0000
vt 0.406250 0.390625
vt 0.500000 0.390625
vt 0.500000 0.523438
vt 0.406250 0.523438
vt 0.351562 0.742188
vt 0.671875 0.742188
vt 0.671875 0.875000
vt 0.351562 0.875000
vt 0.593750 0.390625
vt 0.593750 0.523438
vt 0.351562 0.609375
vt 0.671875 0.609375
vt 0.093750 0.625000
vt 0.000000 0.625000
vt 0.000000 0.304688
vt 0.093750 0.304688
vt 0.187500 0.304688
vt 0.187500 0.625000
s 0
usemtl m_0cf0e49a-57f7-b0e6-3d7a-a200e499bbb1
f 20/41/13 23/42/13 21/43/13 18/44/13
f 19/45/14 20/46/14 18/47/14 17/48/14
f 24/42/15 19/49/15 17/50/15 22/43/15
f 23/51/16 24/52/16 22/46/16 21/45/16
f 22/53/17 17/54/17 18/55/17 21/56/17
f 23/57/18 20/56/18 19/53/18 24/58/18
o cube.003
v 0.187500 0.375000 1.000000
v 0.187500 0.375000 -0.000000
v 0.187500 0.218750 1.000000
v 0.187500 0.218750 -0.000000
v -0.187500 0.375000 -0.000000
v -0.187500 0.375000 1.000000
v -0.187500 0.218750 -0.000000
v -0.187500 0.218750 1.000000
vn -0.0000 -0.0000 -1.0000
vn 1.0000 -0.0000 -0.0000
vn -0.0000 -0.0000 1.0000
vn -1.0000 -0.0000 -0.0000
vn -0.0000 1.0000 -0.0000
vn -0.0000 -1.0000 -0.0000
vt 0.718750 0.664062
vt 0.765625 0.664062
vt 0.765625 0.687500
vt 0.718750 0.687500
vt 0.703125 0.945312
vt 0.828125 0.945312
vt 0.828125 0.968750
vt 0.703125 0.968750
vt 0.718750 0.640625
vt 0.765625 0.640625
vt 0.703125 0.921875
vt 0.828125 0.921875
vt 0.718750 0.875000
vt 0.671875 0.875000
vt 0.671875 0.750000
vt 0.718750 0.750000
vt 0.718750 0.625000
vt 0.671875 0.625000
s 0
usemtl m_0cf0e49a-57f7-b0e6-3d7a-a200e499bbb1
f 28/59/19 31/60/19 29/61/19 26/62/19
f 27/63/20 28/64/20 26/65/20 25/66/20
f 32/67/21 27/68/21 25/60/21 30/59/21
f 31/69/22 32/70/22 30/64/22 29/63/22
f 30/71/23 25/72/23 26/73/23 29/74/23
f 31/75/24 28/76/24 27/73/24 32/74/24
o cube.004
v -0.625000 1.000000 0.937500
v -0.625000 1.000000 0.687500
v -0.625000 0.312500 0.937500
v -0.625000 0.312500 0.687500
v -0.812500 1.000000 0.687500
v -0.812500 1.000000 0.937500
v -0.812500 0.312500 0.687500
v -0.812500 0.312500 0.937500
vn -0.0000 -0.0000 -1.0000
vn 1.0000 -0.0000 -0.0000
vn -0.0000 -0.0000 1.0000
vn -1.0000 -0.0000 -0.0000
vn -0.0000 1.0000 -0.0000
vn -0.0000 -1.0000 -0.0000
vt 0.718750 0.789062
vt 0.742188 0.789062
vt 0.742188 0.875000
vt 0.718750 0.875000
vt 0.703125 0.437500
vt 0.734375 0.437500
vt 0.734375 0.523438
vt 0.703125 0.523438
vt 0.718750 0.703125
vt 0.742188 0.703125
vt 0.703125 0.351562
vt 0.734375 0.351562
vt 0.765625 0.859375
vt 0.742188 0.859375
vt 0.742188 0.828125
vt 0.765625 0.828125
vt 0.765625 0.796875
vt 0.742188 0.796875
s 0
usemtl m_0cf0e49a-57f7-b0e6-3d7a-a200e499bbb1
f 36/77/25 39/78/25 37/79/25 34/80/25
f 35/81/26 36/82/26 34/83/26 33/84/26
f 40/85/27 35/86/27 33/78/27 38/77/27
f 39/87/28 40/88/28 38/82/28 37/81/28
f 38/89/29 33/90/29 34/91/29 37/92/29
f 39/93/30 36/94/30 35/91/30 40/92/30
o cube.005
v -0.625000 1.000000 3.000000
v -0.625000 1.000000 2.750000
v -0.625000 0.312500 3.000000
v -0.625000 0.312500 2.750000
v -0.812500 1.000000 2.750000
v -0.812500 1.000000 3.000000
v -0.812500 0.312500 2.750000
v -0.812500 0.312500 3.000000
vn -0.0000 -0.0000 -1.0000
vn 1.0000 -0.0000 -0.0000
vn -0.0000 -0.0000 1.0000
vn -1.0000 -0.0000 -0.0000
vn -0.0000 1.0000 -0.0000
vn -0.0000 -1.0000 -0.0000
vt 0.718750 0.203125
vt 0.742188 0.203125
vt 0.742188 0.289062
vt 0.718750 0.289062
vt 0.609375 0.203125
vt 0.640625 0.203125
vt 0.640625 0.289062
vt 0.609375 0.289062
vt 0.734375 0.523438
vt 0.757812 0.523438
vt 0.757812 0.609375
vt 0.734375 0.609375
vt 0.671875 0.203125
vt 0.671875 0.289062
vt 0.203125 0.257812
vt 0.179688 0.257812
vt 0.179688 0.226562
vt 0.203125 0.226562
vt 0.226562 0.226562
vt 0.226562 0.257812
s 0
usemtl m_0cf0e49a-57f7-b0e6-3d7a-a200e499bbb1
f 44/95/31 47/96/31 45/97/31 42/98/31
f 43/99/32 44/100/32 42/101/32 41/102/32
f 48/103/33 43/104/33 41/105/33 46/106/33
f 47/100/34 48/107/34 46/108/34 45/101/34
f 46/109/35 41/110/35 42/111/35 45/112/35
f 47/113/36 44/112/36 43/109/36 48/114/36
o cube.006
v -0.625000 1.000000 2.750000
v -0.625000 1.000000 0.937500
v -0.625000 0.875000 2.750000
v -0.625000 0.875000 0.937500
v -0.812500 1.000000 0.937500
v -0.812500 1.000000 2.750000
v -0.812500 0.875000 0.937500
v -0.812500 0.875000 2.750000
vn -0.0000 -0.0000 -1.0000
vn 1.0000 -0.0000 -0.0000
vn -0.0000 -0.0000 1.0000
vn -1.0000 -0.0000 -0.0000
vn -0.0000 1.0000 -0.0000
vn -0.0000 -1.0000 -0.0000
vt 0.320312 0.609375
vt 0.343750 0.609375
vt 0.343750 0.625000
vt 0.320312 0.625000
vt 0.671875 0.609375
vt 0.898438 0.609375
vt 0.898438 0.625000
vt 0.671875 0.625000
vt 0.742188 0.757812
vt 0.765625 0.757812
vt 0.765625 0.773438
vt 0.742188 0.773438
vt 0.609375 0.289062
vt 0.835938 0.289062
vt 0.835938 0.304688
vt 0.609375 0.304688
vt 0.398438 0.351562
vt 0.375000 0.351562
vt 0.375000 0.125000
vt 0.398438 0.125000
vt 0.023438 0.078125
vt 0.000000 0.078125
vt 0.000000 0.304688
vt 0.023438 0.304688
s 0
usemtl m_0cf0e49a-57f7-b0e6-3d7a-a200e499bbb1
f 52/115/37 55/116/37 53/117/37 50/118/37
f 51/119/38 52/120/38 50/121/38 49/122/38
f 56/123/39 51/124/39 49/125/39 54/126/39
f 55/127/40 56/128/40 54/129/40 53/130/40
f 54/131/41 49/132/41 50/133/41 53/134/41
f 55/135/42 52/136/42 51/137/42 56/138/42
o cube.007
v -0.625000 0.437500 2.750000
v -0.625000 0.437500 0.937500
v -0.625000 0.312500 2.750000
v -0.625000 0.312500 0.937500
v -0.812500 0.437500 0.937500
v -0.812500 0.437500 2.750000
v -0.812500 0.312500 0.937500
v -0.812500 0.312500 2.750000
vn -0.0000 -0.0000 -1.0000
vn 1.0000 -0.0000 -0.0000
vn -0.0000 -0.0000 1.0000
vn -1.0000 -0.0000 -0.0000
vn -0.0000 1.0000 -0.0000
vn -0.0000 -1.0000 -0.0000
vt 0.742188 0.742188
vt 0.765625 0.742188
vt 0.765625 0.757812
vt 0.742188 0.757812
vt 0.703125 0.984375
vt 0.929688 0.984375
vt 0.929688 1.000000
vt 0.703125 1.000000
vt 0.742188 0.726562
vt 0.765625 0.726562
vt 0.703125 0.968750
vt 0.929688 0.968750
vt 0.046875 0.304688
vt 0.023438 0.304688
vt 0.023438 0.078125
vt 0.046875 0.078125
vt 0.070312 0.078125
vt 0.070312 0.304688
s 0
usemtl m_0cf0e49a-57f7-b0e6-3d7a-a200e499bbb1
f 60/139/43 63/140/43 61/141/43 58/142/43
f 59/143/44 60/144/44 58/145/44 57/146/44
f 64/147/45 59/148/45 57/140/45 62/139/45
f 63/149/46 64/150/46 62/144/46 61/143/46
f 62/151/47 57/152/47 58/153/47 61/154/47
f 63/155/48 60/154/48 59/151/48 64/156/48
o cube.008
v 0.812500 1.000000 3.062500
v 0.812500 1.000000 0.875000
v 0.812500 0.312500 3.062500
v 0.812500 0.312500 0.875000
v 0.625000 1.000000 0.875000
v 0.625000 1.000000 3.062500
v 0.625000 0.312500 0.875000
v 0.625000 0.312500 3.062500
vn -0.0000 -0.0000 -1.0000
vn 1.0000 -0.0000 -0.0000
vn -0.0000 -0.0000 1.0000
vn -1.0000 -0.0000 -0.0000
vn -0.0000 1.0000 -0.0000
vn -0.0000 -1.0000 -0.0000
vt 0.734375 0.437500
vt 0.757812 0.437500
vt 0.757812 0.523438
vt 0.734375 0.523438
vt 0.187500 0.523438
vt 0.460938 0.523438
vt 0.460938 0.609375
vt 0.187500 0.609375
vt 0.734375 0.351562
vt 0.757812 0.351562
vt 0.734375 0.609375
vt 0.554688 0.390625
vt 0.531250 0.390625
vt 0.531250 0.117188
vt 0.554688 0.117188
vt 0.578125 0.117188
vt 0.578125 0.390625
s 0
usemtl m_0cf0e49a-57f7-b0e6-3d7a-a200e499bbb1
f 68/157/49 71/158/49 69/159/49 66/160/49
f 67/161/50 68/162/50 66/163/50 65/164/50
f 72/165/51 67/166/51 65/158/51 70/157/51
f 71/162/52 72/160/52 70/167/52 69/163/52
f 70/168/53 65/169/53 66/170/53 69/171/53
f 71/172/54 68/171/54 67/168/54 72/173/54
o cube.009
v 0.375000 0.125000 0.375000
v 0.375000 0.125000 -0.375000
v 0.375000 0.062500 0.375000
v 0.375000 0.062500 -0.375000
v -0.375000 0.125000 -0.375000
v -0.375000 0.125000 0.375000
v -0.375000 0.062500 -0.375000
v -0.375000 0.062500 0.375000
vn -0.0000 -0.0000 -1.0000
vn 1.0000 -0.0000 -0.0000
vn -0.0000 -0.0000 1.0000
vn -1.0000 -0.0000 -0.0000
vn -0.0000 1.0000 -0.0000
vn -0.0000 -1.0000 -0.0000
vt 0.742188 0.789062
vt 0.835938 0.789062
vt 0.835938 0.796875
vt 0.742188 0.796875
vt 0.742188 0.781250
vt 0.835938 0.781250
vt 0.742188 0.773438
vt 0.835938 0.773438
vt 0.226562 0.250000
vt 0.320312 0.250000
vt 0.320312 0.257812
vt 0.226562 0.257812
vt 0.281250 0.351562
vt 0.187500 0.351562
vt 0.187500 0.257812
vt 0.281250 0.257812
vt 0.375000 0.257812
vt 0.375000 0.351562
s 0
usemtl m_0cf0e49a-57f7-b0e6-3d7a-a200e499bbb1
f 76/174/55 79/175/55 77/176/55 74/177/55
f 75/178/56 76/179/56 74/175/56 73/174/56
f 80/180/57 75/181/57 73/179/57 78/178/57
f 79/182/58 80/183/58 78/184/58 77/185/58
f 78/186/59 73/187/59 74/188/59 77/189/59
f 79/190/60 76/189/60 75/186/60 80/191/60
o cube.010
v -0.187500 0.250000 0.750000
v -0.187500 0.250000 -0.312500
v -0.187500 0.125000 0.750000
v -0.187500 0.125000 -0.312500
v -0.312500 0.250000 -0.312500
v -0.312500 0.250000 0.750000
v -0.312500 0.125000 -0.312500
v -0.312500 0.125000 0.750000
vn -0.0000 -0.0000 -1.0000
vn 1.0000 -0.0000 -0.0000
vn -0.0000 -0.0000 1.0000
vn -1.0000 -0.0000 -0.0000
vn -0.0000 1.0000 -0.0000
vn -0.0000 -1.0000 -0.0000
vt 0.578125 0.375000
vt 0.593750 0.375000
vt 0.593750 0.390625
vt 0.578125 0.390625
vt 0.187500 0.609375
vt 0.320312 0.609375
vt 0.320312 0.625000
vt 0.187500 0.625000
vt 0.578125 0.359375
vt 0.593750 0.359375
vt 0.703125 0.875000
vt 0.835938 0.875000
vt 0.835938 0.890625
vt 0.703125 0.890625
vt 0.179688 0.304688
vt 0.164062 0.304688
vt 0.164062 0.171875
vt 0.179688 0.171875
vt 0.687500 0.156250
vt 0.671875 0.156250
vt 0.671875 0.289062
vt 0.687500 0.289062
s 0
usemtl m_0cf0e49a-57f7-b0e6-3d7a-a200e499bbb1
f 84/192/61 87/193/61 85/194/61 82/195/61
f 83/196/62 84/197/62 82/198/62 81/199/62
f 88/200/63 83/201/63 81/193/63 86/192/63
f 87/202/64 88/203/64 86/204/64 85/205/64
f 86/206/65 81/207/65 82/208/65 85/209/65
f 87/210/66 84/211/66 83/212/66 88/213/66
o cube.011
v 0.437500 0.187500 2.125000
v 0.437500 0.187500 0.750000
v 0.437500 0.062500 2.125000
v 0.437500 0.062500 0.750000
v -0.437500 0.187500 0.750000
v -0.437500 0.187500 2.125000
v -0.437500 0.062500 0.750000
v -0.437500 0.062500 2.125000
vn -0.0000 -0.0000 -1.0000
vn 1.0000 -0.0000 -0.0000
vn -0.0000 -0.0000 1.0000
vn -1.0000 -0.0000 -0.0000
vn -0.0000 1.0000 -0.0000
vn -0.0000 -1.0000 -0.0000
vt 0.703125 0.304688
vt 0.812500 0.304688
vt 0.812500 0.320312
vt 0.703125 0.320312
vt 0.703125 0.906250
vt 0.875000 0.906250
vt 0.875000 0.921875
vt 0.703125 0.921875
vt 0.718750 0.687500
vt 0.828125 0.687500
vt 0.828125 0.703125
vt 0.718750 0.703125
vt 0.703125 0.890625
vt 0.875000 0.890625
vt 0.296875 0.523438
vt 0.187500 0.523438
vt 0.187500 0.351562
vt 0.296875 0.351562
vt 0.406250 0.351562
vt 0.406250 0.523438
s 0
usemtl m_0cf0e49a-57f7-b0e6-3d7a-a200e499bbb1
f 92/214/67 95/215/67 93/216/67 90/217/67
f 91/218/68 92/219/68 90/220/68 89/221/68
f 96/222/69 91/223/69 89/224/69 94/225/69
f 95/226/70 96/227/70 94/219/70 93/218/70
f 94/228/71 89/229/71 90/230/71 93/231/71
f 95/232/72 92/231/72 91/228/72 96/233/72
o cube.012
v 0.312500 0.250000 0.750000
v 0.312500 0.250000 -0.312500
v 0.312500 0.125000 0.750000
v 0.312500 0.125000 -0.312500
v 0.187500 0.250000 -0.312500
v 0.187500 0.250000 0.750000
v 0.187500 0.125000 -0.312500
v 0.187500 0.125000 0.750000
vn -0.0000 -0.0000 -1.0000
vn 1.0000 -0.0000 -0.0000
vn -0.0000 -0.0000 1.0000
vn -1.0000 -0.0000 -0.0000
vn -0.0000 1.0000 -0.0000
vn -0.0000 -1.0000 -0.0000
vt 0.578125 0.343750
vt 0.593750 0.343750
vt 0.593750 0.359375
vt 0.578125 0.359375
vt 0.703125 0.335938
vt 0.835938 0.335938
vt 0.835938 0.351562
vt 0.703125 0.351562
vt 0.578125 0.328125
vt 0.593750 0.328125
vt 0.703125 0.320312
vt 0.835938 0.320312
vt 0.703125 0.289062
vt 0.687500 0.289062
vt 0.687500 0.156250
vt 0.703125 0.156250
vt 0.718750 0.156250
vt 0.718750 0.289062
s 0
usemtl m_0cf0e49a-57f7-b0e6-3d7a-a200e499bbb1
f 100/234/73 103/235/73 101/236/73 98/237/73
f 99/238/74 100/239/74 98/240/74 97/241/74
f 104/242/75 99/243/75 97/235/75 102/234/75
f 103/244/76 104/245/76 102/239/76 101/238/76
f 102/246/77 97/247/77 98/248/77 101/249/77
f 103/250/78 100/249/78 99/246/78 104/251/78
o cube.013
v 0.437500 0.062500 0.437500
v 0.437500 0.062500 -0.437500
v 0.437500 0.000000 0.437500
v 0.437500 -0.000000 -0.437500
v -0.437500 0.062500 -0.437500
v -0.437500 0.062500 0.437500
v -0.437500 -0.000000 -0.437500
v -0.437500 0.000000 0.437500
vn -0.0000 -0.0000 -1.0000
vn 1.0000 -0.0000 -0.0000
vn -0.0000 -0.0000 1.0000
vn -1.0000 -0.0000 -0.0000
vn -0.0000 1.0000 -0.0000
vn -0.0000 -1.0000 -0.0000
vt 0.718750 0.632812
vt 0.828125 0.632812
vt 0.828125 0.640625
vt 0.718750 0.640625
vt 0.718750 0.625000
vt 0.828125 0.625000
vt 0.742188 0.867188
vt 0.851562 0.867188
vt 0.851562 0.875000
vt 0.742188 0.875000
vt 0.742188 0.859375
vt 0.851562 0.859375
vt 0.703125 0.523438
vt 0.593750 0.523438
vt 0.593750 0.414062
vt 0.703125 0.414062
vt 0.703125 0.304688
vt 0.593750 0.304688
s 0
usemtl m_0cf0e49a-57f7-b0e6-3d7a-a200e499bbb1
f 108/252/79 111/253/79 109/254/79 106/255/79
f 107/256/80 108/257/80 106/253/80 105/252/80
f 112/258/81 107/259/81 105/260/81 110/261/81
f 111/262/82 112/263/82 110/259/82 109/258/82
f 110/264/83 105/265/83 106/266/83 109/267/83
f 111/268/84 108/269/84 107/266/84 112/267/84
