# Blender 4.0.2
# www.blender.org
mtllib launcher_turret_breach.mtl
o cube
v 0.375000 1.125000 1.000000
v 0.375000 1.125000 -0.437500
v 0.375000 0.375000 1.000000
v 0.375000 0.375000 -0.437500
v -0.375000 1.125000 -0.437500
v -0.375000 1.125000 1.000000
v -0.375000 0.375000 -0.437500
v -0.375000 0.375000 1.000000
vn -0.0000 -0.0000 -1.0000
vn 1.0000 -0.0000 -0.0000
vn -0.0000 -0.0000 1.0000
vn -1.0000 -0.0000 -0.0000
vn -0.0000 1.0000 -0.0000
vn -0.0000 -1.0000 -0.0000
vt 0.179688 0.726562
vt 0.273438 0.726562
vt 0.273438 0.820312
vt 0.179688 0.820312
vt 0.000000 0.726562
vt 0.000000 0.820312
vt 0.453125 0.726562
vt 0.546875 0.726562
vt 0.546875 0.820312
vt 0.453125 0.820312
vt 0.273438 1.000000
vt 0.179688 1.000000
vt 0.367188 0.820312
vt 0.367188 1.000000
s 0
usemtl m_23700e95-bcf0-276f-4757-7576a50503b4.001
f 4/1/1 7/2/1 5/3/1 2/4/1
f 3/5/2 4/1/2 2/4/2 1/6/2
f 8/7/3 3/8/3 1/9/3 6/10/3
f 7/2/4 8/7/4 6/10/4 5/3/4
f 6/11/5 1/12/5 2/4/5 5/3/5
f 7/13/6 4/3/6 3/11/6 8/14/6
o cube.001
v 0.437500 0.937500 -0.437500
v 0.437500 0.937500 -0.562500
v 0.437500 0.562500 -0.437500
v 0.437500 0.562500 -0.562500
v -0.437500 0.937500 -0.562500
v -0.437500 0.937500 -0.437500
v -0.437500 0.562500 -0.562500
v -0.437500 0.562500 -0.437500
vn -0.0000 -0.0000 -1.0000
vn 1.0000 -0.0000 -0.0000
vn -0.0000 -0.0000 1.0000
vn -1.0000 -0.0000 -0.0000
vn -0.0000 1.0000 -0.0000
vn -0.0000 -1.0000 -0.0000
vt 0.015625 0.664062
vt 0.125000 0.664062
vt 0.125000 0.710938
vt 0.015625 0.710938
vt 0.000000 0.664062
vt 0.000000 0.710938
vt 0.140625 0.664062
vt 0.250000 0.664062
vt 0.250000 0.710938
vt 0.140625 0.710938
vt 0.125000 0.726562
vt 0.015625 0.726562
vt 0.234375 0.710938
vt 0.234375 0.726562
s 0
usemtl m_23700e95-bcf0-276f-4757-7576a50503b4.001
f 12/15/7 15/16/7 13/17/7 10/18/7
f 11/19/8 12/15/8 10/18/8 9/20/8
f 16/21/9 11/22/9 9/23/9 14/24/9
f 15/16/10 16/21/10 14/24/10 13/17/10
f 14/25/11 9/26/11 10/18/11 13/17/11
f 15/27/12 12/17/12 11/25/12 16/28/12
